# xmcd
#
# Track frame offsets: 
#        150
#        12767
#        29431
#        39880
#        56596
#        66556
#        81261
#        97037
#        110158
#        130547
#        144313
#        155447
#        168531
#
# Disc length: 2411 seconds
#
# Revision: 0
# Processed by: cddbd v1.5PL3 Copyright (c) Steve Scherf et al.
# Submitted via: ExactAudioCopy v0.95a5
#
DISCID=ac09690d
DTITLE=Countyline Bluegrass - Back On Daddy's Farm
DYEAR=2002
DGENRE=Bluegrass
TTITLE0=Gravel In Your Shoe
TTITLE1=Gypsy Woman
TTITLE2=What This Old Heart's Been Through
TTITLE3=I Think Of You
TTITLE4=Snow On The Mountain
TTITLE5=Thirty Two Acres
TTITLE6=Daddy's Farm
TTITLE7=Be Good To My Little Baby Girl
TTITLE8=I'm Not That Good At Goodbyes
TTITLE9=America Get On Your Knees And Pray
TTITLE10=Ground Smoke
TTITLE11=Purple Robe
TTITLE12=Ridin That Midnight Train
EXTD=
EXTT0=
EXTT1=
EXTT2=
EXTT3=
EXTT4=
EXTT5=
EXTT6=
EXTT7=
EXTT8=
EXTT9=
EXTT10=
EXTT11=
EXTT12=
PLAYORDER=
